# xmcd
#
# Track frame offsets: 
#        150
#        7051
#        14180
#        28387
#        41273
#        51223
#        68863
#        92029
#        102345
#
# Disc length: 1699 seconds
#
# Revision: 0
# Processed by: cddbd v1.5.2PL0 Copyright (c) Steve Scherf et al.
# Submitted via: ExactAudioCopy v0.99pb3
#
DISCID=7906a109
DTITLE=Smoothbore and Soulmotion - Äänimaisema
DYEAR=2002
DGENRE=Hip-Hop
TTITLE0=Smoothbore and Soulmotion
TTITLE1=Unohda Hiphop!
TTITLE2=Jokainen
TTITLE3=Sielun Pakolainen
TTITLE4=Kaupallinen Täyte
TTITLE5=Miksi?
TTITLE6=Tarttuva Rytmitauti
TTITLE7=Minun Tieni
TTITLE8=Olen Lauluni
EXTD=
EXTT0=
EXTT1=
EXTT2=
EXTT3=
EXTT4=
EXTT5=
EXTT6=
EXTT7=
EXTT8=
PLAYORDER=
